<svg xmlns:dc="http://purl.org/dc/elements/1.1/" xmlns:cc="http://creativecommons.org/ns#" xmlns:rdf="http://www.w3.org/1999/02/22-rdf-syntax-ns#" xmlns:svg="http://www.w3.org/2000/svg" xmlns="http://www.w3.org/2000/svg" xmlns:sodipodi="http://sodipodi.sourceforge.net/DTD/sodipodi-0.dtd" xmlns:inkscape="http://www.inkscape.org/namespaces/inkscape" version="1.1" x="0px" y="0px" viewBox="0 0 100 125"><g transform="translate(0,-952.36218)"><path fill="rgba(255, 255, 255, 0.85)" style="font-size:medium;font-style:normal;font-variant:normal;font-weight:normal;font-stretch:normal;text-indent:0;text-align:start;text-decoration:none;line-height:normal;letter-spacing:normal;word-spacing:normal;text-transform:none;direction:ltr;block-progression:tb;writing-mode:lr-tb;text-anchor:start;baseline-shift:baseline;opacity:1;color:rgba(255, 255, 255, 0.85);fill:rgba(255, 255, 255, 0.85);stroke:none;stroke-width:5.99999952000000030;marker:none;visibility:visible;display:inline;overflow:visible;enable-background:accumulate;font-family:Sans;-inkscape-font-specification:Sans" d="M 44 13 C 40.173892 13 37 16.17389 37 20 L 37 25 L 12 25 C 8.1738933 25 5 28.17389 5 32 L 5 80 C 5 83.8261 8.1738933 87 12 87 L 88 87 C 91.826107 87 95 83.8261 95 80 L 95 32 C 95 28.17389 91.826107 25 88 25 L 63 25 L 63 20 C 63 16.17389 59.826108 13 56 13 L 44 13 z M 44 19 L 56 19 C 56.60589 19 57 19.39411 57 20 L 57 25 L 43 25 L 43 20 C 43 19.39411 43.39411 19 44 19 z M 12 31 L 88 31 C 88.60589 31 89 31.39411 89 32 L 89 80 C 89 80.6059 88.60589 81 88 81 L 12 81 C 11.39411 81 11 80.6059 11 80 L 11 32 C 11 31.39411 11.39411 31 12 31 z M 18.6875 36 A 3.0040663 3.0040663 0 1 0 19 42 L 39 42 A 3.0002998 3.0002998 0 1 0 39 36 L 19 36 A 3.0002998 3.0002998 0 0 0 18.6875 36 z M 65 36 C 58.960401 36 54 40.9604 54 47 C 54 50.350195 55.547371 53.351383 57.9375 55.375 C 50.959446 58.192066 46 65.038273 46 73 A 3.0002998 3.0002998 0 0 0 49 76 L 81 76 A 3.0002998 3.0002998 0 0 0 84 73 C 84 65.038273 79.040554 58.192066 72.0625 55.375 C 74.452629 53.351383 76 50.350195 76 47 C 76 40.9604 71.039598 36 65 36 z M 65 42 C 67.796958 42 70 44.20304 70 47 C 70 49.79694 67.796958 52 65 52 C 62.203042 52 60 49.79694 60 47 C 60 44.20304 62.203042 42 65 42 z M 18.6875 53 A 3.0040663 3.0040663 0 1 0 19 59 L 39 59 A 3.0002998 3.0002998 0 1 0 39 53 L 19 53 A 3.0002998 3.0002998 0 0 0 18.6875 53 z M 65 60 C 71.184554 60 76.284551 64.2419 77.625 70 L 52.375 70 C 53.715449 64.2419 58.815446 60 65 60 z M 18.6875 70 A 3.0040663 3.0040663 0 1 0 19 76 L 39 76 A 3.0002998 3.0002998 0 1 0 39 70 L 19 70 A 3.0002998 3.0002998 0 0 0 18.6875 70 z " transform="translate(0,952.36218)"/></g></svg>