<svg xmlns="http://www.w3.org/2000/svg" xmlns:xlink="http://www.w3.org/1999/xlink" version="1.1" x="0px" y="0px" viewBox="0 0 100 125" style="enable-background:new 0 0 100 100;" xml:space="preserve"><path fill="#5a5a5a" d="M83.4,16.1L57.6,41.9L56.5,43v1.6v38.8l-13-13V44.5V43l-1.1-1.1L16.6,16.1H83.4 M84.2,12.4H15.8c-1.5,0-2.5,0.7-3.2,2.1  c-0.6,1.5-0.4,2.7,0.7,3.7l26.3,26.3v26c0,0.9,0.3,1.7,1,2.4l13.7,13.7c0.6,0.7,1.4,1,2.4,1c0.4,0,0.9-0.1,1.3-0.3  c1.4-0.6,2.1-1.7,2.1-3.2V44.5l26.3-26.3c1.1-1,1.4-2.3,0.7-3.7C86.8,13.1,85.7,12.4,84.2,12.4L84.2,12.4z"/></svg>