<svg id="Lager_1" data-name="Lager 1" xmlns="http://www.w3.org/2000/svg" viewBox="0 0 500.16 433.3"><defs><style>.cls-1{fill:#bcbcbc;}</style></defs><title>house_grey</title><g id="house"><path class="cls-1" d="M32.74,244.45l38.2-33.5v220.3a14.4,14.4,0,0,0,14.4,14.4h347.3a14.4,14.4,0,0,0,14.4-14.4V210.95l38.2,33.5a14.34,14.34,0,0,0,20.3-1.3,14.49,14.49,0,0,0-1.3-20.3L268.44,15.95a14.33,14.33,0,0,0-19,0L13.84,222.85a14.35,14.35,0,0,0,18.9,21.6Zm270.5,172.5h-88.6v-120h88.6Zm-44.3-371L418.54,186a10.1,10.1,0,0,0-.3,1.7v229.2h-86.3V282.65a14.4,14.4,0,0,0-14.4-14.4H200.24a14.4,14.4,0,0,0-14.4,14.4V417H99.64V187.75c0-.6-.3-1.1-.3-1.7Z" transform="translate(-8.92 -12.35)"/></g></svg>