<svg xmlns="http://www.w3.org/2000/svg" xmlns:xlink="http://www.w3.org/1999/xlink" version="1.1" x="0px" y="0px" viewBox="0 0 100 125" style="enable-background:new 0 0 100 100;" xml:space="preserve"><path fill="#b0aeae" d="M50,20.7c-9.4,0-17.1,7.7-17.1,17.1S40.6,54.8,50,54.8s17.1-7.7,17.1-17.1S59.4,20.7,50,20.7z M50,52.8  c-8.3,0-15.1-6.8-15.1-15.1S41.7,22.6,50,22.6s15.1,6.8,15.1,15.1S58.3,52.8,50,52.8z M50,0C29.3,0,12.4,17.1,12.3,38  c0.1,7.1,2.1,14.1,6,20.1l28.1,39.3c0.9,1.7,2.3,2.6,3.7,2.6c1.4,0,2.8-0.9,3.7-2.6l28.1-39.3c3.8-6,5.9-12.9,6-20.1  C87.6,17.1,70.7,0,50,0z M80.2,57L52.1,96.3L52,96.4c-0.6,1-1.3,1.6-2,1.6c-0.7,0-1.4-0.6-2-1.6L19.9,57c-3.6-5.7-5.6-12.2-5.6-19  C14.4,18.1,30.4,2,50,2C69.6,2,85.6,18.1,85.8,38C85.7,44.8,83.8,51.4,80.2,57z"/></svg>