<svg xmlns="http://www.w3.org/2000/svg" xmlns:xlink="http://www.w3.org/1999/xlink" version="1.1" x="0px" y="0px" viewBox="0 0 100 125" style="enable-background:new 0 0 100 100;" xml:space="preserve"><path fill="#D8523D" d="M88,35v39c0,3.3-2.7,6-6,6H18c-3.3,0-6-2.7-6-6V35c0-3.3,2.7-6,6-6h3v-1c0-1.1,0.9-2,2-2h8c1.1,0,2,0.9,2,2v1h8l6.8-8.5  c0.8-0.9,1.9-1.5,3.1-1.5h14.2c1.2,0,2.4,0.6,3.1,1.5L75,29h7C85.3,29,88,31.7,88,35z M19,41h10c0.6,0,1-0.4,1-1v-4c0-0.6-0.4-1-1-1  H19c-0.6,0-1,0.4-1,1v4C18,40.6,18.4,41,19,41z M74.5,54c0-9.1-7.4-16.5-16.5-16.5S41.5,44.9,41.5,54S48.9,70.5,58,70.5  S74.5,63.1,74.5,54z M71.5,54c0,7.4-6.1,13.5-13.5,13.5S44.5,61.4,44.5,54S50.6,40.5,58,40.5S71.5,46.6,71.5,54z M51,54  c0,3.9,3.1,7,7,7s7-3.1,7-7s-3.1-7-7-7S51,50.1,51,54z"/></svg>