<svg xmlns:dc="http://purl.org/dc/elements/1.1/" xmlns:cc="http://creativecommons.org/ns#" xmlns:rdf="http://www.w3.org/1999/02/22-rdf-syntax-ns#" xmlns:svg="http://www.w3.org/2000/svg" xmlns="http://www.w3.org/2000/svg" xmlns:sodipodi="http://sodipodi.sourceforge.net/DTD/sodipodi-0.dtd" xmlns:inkscape="http://www.inkscape.org/namespaces/inkscape" version="1.1" x="0px" y="0px" viewBox="0 0 100 125"><g transform="translate(0,-952.36218)"><path  style="color:#D8523D;enable-background:accumulate;fill:#D8523D;" d="m 42.998345,959.36219 c -9.9174,0 -18,8.08255 -18,18 0,3.90626 1.1598,8.0726 3.375,11.15625 a 2.003476,2.003476 0 1 0 3.25,-2.34375 c -1.5569,-2.16721 -2.625,-5.75998 -2.625,-8.8125 0,-7.75568 6.2443,-14 14,-14 7.7557,0 14,6.24432 14,14 0,3.05252 -1.0681,6.64529 -2.625,8.8125 a 2.003476,2.003476 0 1 0 3.25,2.34375 c 2.2152,-3.08365 3.375,-7.24999 3.375,-11.15625 0,-9.91745 -8.0826,-18 -18,-18 z m 0,14 c -3.3234,0 -6,2.676 -6,6 l 0,36.00001 -4,-8 c -3.277,-6.0808 -6.4998,-5.4487 -9,-4 -2.8939,1.9302 -3.9722,3.9231 -2,9 4.5397,11.1479 11.5112,24.4295 19,33 l 27,0 c 9.4886,-7.0305 17.1238,-40.4634 4,-42 -1.2036,0 -3.1309,0.193 -4,1 0,-4 -3.4906,-5.02492 -5,-5.00002 -1.7317,0.029 -3.0004,1.00002 -4,3.00002 0,-4.00002 -3.2624,-5.00002 -5,-5.00002 -1.9129,0 -4.1312,1.1936 -5,3.00002 l 0,-21.00002 c 0,-3.324 -2.6766,-6 -6,-6 z" fill="#000000" stroke="none" marker="none" visibility="visible" display="inline" overflow="visible"/></g></svg>