<svg xmlns="http://www.w3.org/2000/svg" xmlns:xlink="http://www.w3.org/1999/xlink" version="1.1" x="0px" y="0px" viewBox="0 0 90 112.5" enable-background="new 0 0 90 90" xml:space="preserve"><g><path fill="#D8523D" d="M43.8,14.8c-1.2,0-2.2,1-2.2,2.2v29.5c0,1.3,1.6,2.2,2.7,2.2h15c1.2,0,2.2-1,2.2-2.2s-1-2.2-2.2-2.2H46V17   C46,15.8,45,14.8,43.8,14.8z"/><path fill="#D8523D"  d="M64.4,19.8l4.2,4.2l0.1,0.1c0.5,0.3,1,0.5,1.5,0.5c0.6,0,1.1-0.2,1.3-0.4l10.9-10.9c0.4-0.4,0.7-1,0.7-1.5   s-0.2-1.1-0.7-1.5c-0.8-0.8-2.2-0.8-3.1,0l-9.1,9.1l-2.8-2.8c-0.8-0.8-2.2-0.8-3.1,0C63.5,17.6,63.5,19,64.4,19.8z"/><path fill="#D8523D" d="M85.1,28.9L85.1,28.9c-0.6-1.1-1.8-1.6-2.9-1.2l-0.1,0.1c-1.1,0.6-1.5,1.8-1.1,2.9c1.9,4.6,2.8,9.5,2.8,14.6   C83.9,66.6,66.4,84,45,84C23.6,84,6.1,66.6,6.1,45.2C6.1,23.8,23.6,6.3,45,6.3c6.1,0,11.9,1.3,17.3,4c1,0.4,2.3,0,2.9-1.1   c0.4-1,0-2.3-1-2.9c-5.9-3-12.4-4.5-19.2-4.5C21.2,1.9,1.8,21.3,1.8,45.1S21.2,88.3,45,88.3c23.8,0,43.2-19.4,43.2-43.2   C88.2,39.6,87.2,34.2,85.1,28.9z"/></g></svg>