<svg xmlns="http://www.w3.org/2000/svg" xmlns:xlink="http://www.w3.org/1999/xlink" version="1.1" x="0px" y="0px" viewBox="0 0 100 125" enable-background="new 0 0 100 100" xml:space="preserve"><path fill="rgba(255, 255, 255, 0.85)" d="M49.909,50.91c-8.262,0-13.299-8.246-14.328-12.008c-0.244-0.891-0.467-1.92-0.66-3.063  c-1.035-0.621-1.845-1.566-2.31-2.705c-0.703-1.762-1.034-5.338-1.036-5.371c-0.219-2.207,0.328-3.844,0.753-4.614  C32.426,11.695,38.262,5,49.497,5c4.58,0,7.8,1.484,10.005,3.83c2.334-0.137,8.096,2.143,8.168,14.321  c0.396,0.729,0.979,2.326,0.75,4.644c0,0.01-0.33,3.572-1.029,5.332c-0.467,1.146-1.277,2.091-2.313,2.713  c-0.146,0.864-0.363,1.981-0.662,3.064C63.277,43.088,57.852,50.91,49.909,50.91z"/><path fill="rgba(255, 255, 255, 0.85)" d="M52.777,61.452c0.158-0.381,0.371-0.782,0.592-1.2c0.4-0.762,0.98-1.528,1.168-2.352c0,0,0.432-1.443,0.385-2.122  c-0.121-1.806-2.563-3.672-4.921-1.438c-2.362-2.234-4.803-0.368-4.928,1.438c-0.045,0.696,0.036,1.457,0.399,2.177  c0,0,0.765,1.551,1.155,2.295c0.222,0.42,0.434,0.821,0.594,1.204c-0.541,1.772-1.627,5.002-2.195,8.693  c-0.02,0.133-0.014,0.266,0.02,0.395c0.907,3.505,2.34,8.544,4.018,12.647c0.15,0.368,0.508,0.606,0.906,0.606h0.063  c0.396,0,0.755-0.24,0.906-0.608c1.678-4.109,3.109-9.143,4.016-12.642c0.033-0.129,0.039-0.262,0.02-0.395  C54.404,66.456,53.318,63.225,52.777,61.452z"/><path fill="rgba(255, 255, 255, 0.85)" d="M51.26,95h-2.521c-0.328,0-32.846-0.43-35.527-10.017c-2.233-8.953-1.322-21.055,15.657-28.004  c1.28-0.522,3.575-1.409,3.575-1.409c0.865-0.336,2.191-1.212,2.837-1.877l2.261-2.072c0.46-0.443,1.004-0.687,1.553-0.687  c0.727,0,1.607,0.456,1.904,1.735l8.994,30.675l8.919-30.741c0.27-1.201,1.137-1.655,1.852-1.655c0.389,0,0.977,0.128,1.578,0.732  l2.152,1.895c0.705,0.723,2.031,1.599,2.895,1.929c0.002,0.002,2.449,0.949,3.74,1.476c16.98,6.949,17.891,19.051,15.666,27.979  C84.104,94.57,51.586,95,51.26,95z"/></svg>