<svg xmlns="http://www.w3.org/2000/svg" xmlns:xlink="http://www.w3.org/1999/xlink" version="1.1" x="0px" y="0px" viewBox="0 0 100 125" style="enable-background:new 0 0 100 100;" xml:space="preserve"><g><path fill="#000" d="M94.2,46.6L81.7,35.2V15.3c0-0.6-0.5-1.2-1.2-1.2l-10.6,0c-0.6,0-1.2,0.5-1.2,1.2v8.1L52.9,8.8c-1.7-1.5-4.2-1.5-5.9,0   L5.8,46.6c-1.6,1.4-0.6,4.1,1.6,4.1h6.2l36.4-34l36.4,34h6.2C94.8,50.7,95.8,48.1,94.2,46.6z"/><path d="M82.2,83.2h-0.6c0-0.1,0-0.2,0-0.4V51L50,21.5L18.3,51v31.8c0,0.1,0,0.3,0,0.4h-1.2c-0.8,0-1.5,0.7-1.5,1.5v6.2   c0,0.8,0.7,1.5,1.5,1.5h65c0.8,0,1.5-0.7,1.5-1.5v-6.2C83.7,83.9,83.1,83.2,82.2,83.2z"/></g></svg>