<svg xmlns="http://www.w3.org/2000/svg" xmlns:xlink="http://www.w3.org/1999/xlink" version="1.1" x="0px" y="0px" viewBox="0 0 60 75" style="enable-background:new 0 0 60 60;" xml:space="preserve"><g><g><path fill="#cecece" d="M45.5,42.6c3.5-4.2,5.7-9.6,5.7-15.5c0-13.2-10.8-24-24-24s-24,10.8-24,24c0,13.2,10.8,24,24,24c5.9,0,11.3-2.1,15.5-5.7    l10.8,10.8c0.4,0.4,0.9,0.6,1.4,0.6s1-0.2,1.4-0.6c0.8-0.8,0.8-2,0-2.8L45.5,42.6z M27.2,47.2c-11,0-20-9-20-20c0-11,9-20,20-20    s20,9,20,20C47.2,38.2,38.2,47.2,27.2,47.2z"/></g></g></svg>