<svg xmlns="http://www.w3.org/2000/svg" xmlns:xlink="http://www.w3.org/1999/xlink" version="1.1" x="0px" y="0px" viewBox="0 0 100 125" style="enable-background:new 0 0 100 100;" xml:space="preserve"><g><path fill="#d8523d" d="M91.8,70.3c-0.7-3.8-2-7.6-4-11.5c-0.4-0.7-0.8-1.5-1.3-2.4C86.4,56.1,86.2,56,86,56c-0.2,0-0.5,0-0.6,0.2  c-3.1,2.9-6.7,5.8-10.6,8.6c-1.7,1.2-3.5,2.4-5.4,3.6C69,68.6,68.9,69,69,69.3c0.1,0.3,0.4,0.6,0.7,0.6c0.9,0.1,1.8,0.2,2.6,0.2   c0.9,0.1,1.8,0.2,2.7,0.2c-0.5,0.2-1,0.4-1.5,0.6c-1.4,0.5-2.9,1-4.5,1.5C62.9,74.1,55.6,75,47.9,75c-9.7,0-18.8-1.4-25.6-4  c-4.6-1.8-7.8-4-8.9-6.1c-0.2-0.3-0.3-0.6-0.4-0.9c-0.1-0.3-0.1-0.6-0.1-0.9c0-2.7,3.5-5.7,9.4-7.9c0.1,0,0.1,0,0.2-0.1   c0.4,5.5,5,9.9,10.6,9.9h32.3c5.9,0,10.7-4.8,10.7-10.7V36.7c0-5.9-4.8-10.7-10.7-10.7h-4.4c-1.8-3.5-5.4-5.7-9.4-5.7h-4.7  c-4,0-7.6,2.2-9.4,5.7h-4.4c-5.9,0-10.7,4.8-10.7,10.7V50c-8.8,3-14.3,7.6-14.3,13c0,1.1,0.2,2.2,0.7,3.3c3.4,7.8,19,13.4,39,13.4   c15.8,0,28.9-3.5,35.3-8.8c2.6,0.1,5.2,0.3,7.8,0.3c0,0,0,0,0,0c0.1,0,0.1,0,0.2,0c0.2,0,0.3-0.1,0.4-0.3   C91.8,70.8,91.9,70.5,91.8,70.3z M27.1,36.7c0-3.3,2.7-6,6-6H39c1,0,1.9-0.6,2.2-1.6c0.8-2.5,3.1-4.1,5.7-4.1h4.7   c2.6,0,4.9,1.6,5.7,4.1c0.3,1,1.2,1.6,2.2,1.6h5.9c3.3,0,6,2.7,6,6v17.5c0,3.3-2.7,6-6,6H33.1c-3.3,0-6-2.7-6-6V36.7z"/><path d="M49.3,58.1c7.2,0,13.1-5.9,13.1-13.1s-5.9-13.1-13.1-13.1s-13.1,5.9-13.1,13.1S42,58.1,49.3,58.1z M49.3,36.5   c4.7,0,8.4,3.8,8.4,8.4s-3.8,8.4-8.4,8.4c-4.7,0-8.4-3.8-8.4-8.4S44.6,36.5,49.3,36.5z"/></g></svg>